<?xml version="1.0" encoding="UTF-8"?>
<svg xmlns="http://www.w3.org/2000/svg" id="Layer_1" viewBox="0 0 136.05 120.41">
  <defs>
    <style>.cls-1{fill:#fff;}.cls-2{font-family:MyriadPro-Regular, 'Myriad Pro';font-size:12px;}.cls-2,.cls-3{fill:#231f20;}</style>
  </defs>
  <g>
    <path class="cls-1" d="M123.48,64.41C110.89,35.35,88.02,2,69.32,2c-.42,0-2.16,0-2.59,0-18.71,0-41.59,33.37-54.17,62.44C4.39,81.77,0,97.57,2.87,103.88c1.2,2.65,7.19,5.55,16.07,8.06,11.62,3.59,28.86,6.38,47.79,6.47,.42,0,.84-.01,1.26-.02,.45,0,.89,.02,1.34,.02,18.97-.09,36.24-2.89,47.86-6.49,8.84-2.5,14.8-5.39,16-8.04,2.86-6.31-1.53-22.13-9.7-39.47Z"></path>
    <path class="cls-3" d="M66.73,2c.43,0,2.17,0,2.59,0,18.7,0,41.57,33.35,54.16,62.41,8.18,17.34,12.56,33.16,9.7,39.47-1.2,2.65-7.16,5.54-16,8.04-11.63,3.6-28.9,6.4-47.86,6.49-.45,0-.89-.01-1.34-.02-.42,0-.84,.01-1.26,.02-18.93-.09-36.17-2.88-47.79-6.47-8.88-2.51-14.87-5.41-16.07-8.06C0,97.57,4.39,81.77,12.56,64.44,25.14,35.37,48.02,2,66.73,2m0-2C47.18,0,24.01,32.97,10.74,63.61c-3.41,7.23-14.09,31.4-9.69,41.1,1.47,3.24,7.31,6.32,17.35,9.16,13.17,4.07,30.8,6.46,48.32,6.54,.27,0,.51,0,.76,0h.53s.48,0,.48,0c.28,0,.56,0,.83,0,17.57-.08,35.23-2.48,48.45-6.58,9.95-2.82,15.76-5.89,17.23-9.13,4.4-9.71-6.29-33.89-9.7-41.12C112.03,32.96,88.86,0,69.32,0c-.39,0-2.19,0-2.59,0h0Z"></path>
  </g>
  <path class="cls-3" d="M44.71,86.76h2.38l-.39-1.08c-.56-1.59-.75-2.75-.75-2.75h-.07s-.25,1.18-.78,2.73l-.38,1.1Zm3.03,1.85h-3.65l-.69,2.02h-2.32l3.49-9.65h2.75l3.53,9.65h-2.4l-.7-2.02Z"></path>
  <path class="cls-3" d="M33.65,73.66c.54,.74,.8,1.29,.8,1.29h.07s-.05-.82-.05-2.04v-3.92h2.23v9.65h-2.03l-3.4-4.59c-.62-.82-.92-1.42-.92-1.42h-.06s.1,.79,.1,2.18v3.83h-2.23v-9.65h2.1l3.41,4.67Z"></path>
  <path class="cls-3" d="M52.85,74.3c.29,1.38,.46,2.73,.46,2.73h.06s.13-1.38,.41-2.72l1.08-5.32h2.26l-2.11,9.65h-3.24l-1.1-4.77c-.31-1.36-.38-2.7-.38-2.7h-.06s-.08,1.34-.41,2.72l-1.15,4.75h-3.13l-2.13-9.65h2.36l1.11,5.31c.3,1.38,.44,2.73,.44,2.73h.06s.15-1.38,.43-2.72l1.18-5.32h2.65l1.2,5.31Z"></path>
  <path class="cls-3" d="M31.04,87.55c-.59,.8-1.03,1.2-1.03,1.2v.06s.48-.08,1.31-.08h3.51v1.93h-7.48v-1.61l3.52-4.93c.59-.8,1.03-1.2,1.03-1.2v-.06s-.46,.08-1.31,.08h-3.13v-1.93h7.22v1.55l-3.64,4.98Z"></path>
  <polygon class="cls-3" points="53.46 81.04 53.46 88.75 56.34 88.75 55.59 90.68 51.23 90.68 51.23 81.04 53.46 81.04"></polygon>
  <path class="cls-3" d="M72.23,85.65c.54,.73,.8,1.29,.8,1.29h.06s-.05-.82-.05-2.05v-3.91h2.23v9.64h-2.03l-3.41-4.58c-.62-.82-.92-1.42-.92-1.42h-.07s.1,.78,.1,2.17v3.83h-2.22v-9.64h2.1l3.4,4.67Z"></path>
  <path class="cls-3" d="M79.61,88.74c1.72,0,2.74-.72,2.74-2.91s-1.02-2.96-2.6-2.96h-1.1v5.88h.97Zm-3.2,1.89v-9.65h3.55c2.67,0,4.7,1.33,4.7,4.71,0,3.57-2.08,4.93-4.85,4.93h-3.41Z"></path>
  <path class="cls-3" d="M32.4,100.45l-1.33-2.21c-.51-.8-.74-1.47-.74-1.47h-.06s.1,.54,.1,1.64v4.27h-2.23v-9.64h2.26l1.82,3.26c.56,.95,.69,1.41,.69,1.41h.07s.15-.46,.69-1.41l1.83-3.26h2.23v9.64h-2.21v-4.27c0-1.1,.08-1.64,.08-1.64h-.07s-.23,.67-.72,1.47l-1.34,2.21h-1.06Z"></path>
  <path class="cls-3" d="M51.86,100.79c1.72,0,2.74-.72,2.74-2.91s-1.02-2.96-2.6-2.96h-1.1v5.88h.96Zm-3.2,1.88v-9.64h3.55c2.67,0,4.7,1.33,4.7,4.72,0,3.57-2.08,4.93-4.85,4.93h-3.41Z"></path>
  <polygon class="cls-3" points="64.42 102.67 57.95 102.67 57.95 93.03 64.42 93.03 64.42 94.96 60.18 94.96 60.18 96.88 63.91 96.88 63.91 98.73 60.18 98.73 60.18 100.74 64.42 100.74 64.42 102.67"></polygon>
  <path class="cls-3" d="M41.74,98.81h2.38l-.39-1.08c-.56-1.59-.75-2.75-.75-2.75h-.06s-.25,1.18-.79,2.74l-.38,1.1Zm3.03,1.85h-3.65l-.69,2.01h-1.59v-2.01s2.75-7.63,2.75-7.63h2.75l3.52,9.64h-2.39l-.71-2.01Z"></path>
  <polygon class="cls-3" points="44.09 78.64 38.05 78.64 38.05 68.99 41.91 68.99 42.33 70.93 40.28 70.93 40.28 72.84 42.79 72.85 43.21 74.7 40.28 74.69 40.28 76.71 43.66 76.71 44.09 78.64"></polygon>
  <polygon class="cls-3" points="42.45 82.94 37.98 82.94 37.98 84.96 41.65 84.95 41.05 86.81 37.98 86.81 37.98 88.73 40.8 88.74 40.12 90.66 35.75 90.66 35.75 81.01 43.15 81.01 42.45 82.94"></polygon>
  <path class="cls-3" d="M60.3,86.76h2.37l-.39-1.08c-.56-1.59-.75-2.75-.75-2.75h-.06s-.25,1.18-.79,2.73l-.37,1.1Zm3.03,1.85h-3.65l-.69,2.01h-2.32l3.49-9.64h2.75l2.78,7.62,.02,2.02h-1.67l-.7-2.01Z"></path>
  <path class="cls-3" d="M39.04,62.26s.75-20.83,9.74-25.78c0,0,12.44-7.19,26.08-6.89,0,0,17.68-.45,25.03,12.59,0,0,8.99,13.79-23.98,28.17h8.69s-1.28-14.24-14.58-24.43c0,0-8.21-6.89-14.5-6.74,0,0-12.74-1.35-16.49,23.08"></path>
  <text class="cls-2" transform="translate(65.7 101.55)">
    <tspan x="0" y="0">™</tspan>
  </text>
</svg>
